<?xml version="1.0" encoding="utf-8"?>
<!-- Generator: Adobe Illustrator 24.0.1, SVG Export Plug-In . SVG Version: 6.00 Build 0)  -->
<svg version="1.1" xmlns="http://www.w3.org/2000/svg" xmlns:xlink="http://www.w3.org/1999/xlink" x="0px" y="0px"
	 viewBox="0 0 288 111.2" style="enable-background:new 0 0 288 111.2;" xml:space="preserve">
<style type="text/css">
	.st0{fill:#00ADDC;}
	.st1{fill:#5E6B69;}
	.st2{fill:#ED1C24;}
</style>
<g id="Layer_1">
</g>
<g id="Layer_2">
	<g>
		<path class="st0" d="M19.2,68.4L5.5,34.5H10l11.6,29.8l11.7-29.8h4.3L23.8,68.4H19.2z"/>
		<path class="st0" d="M56.7,69.1c-2.5,0-4.7-0.5-6.8-1.4c-2.1-0.9-3.8-2.2-5.4-3.8c-1.5-1.6-2.7-3.5-3.5-5.6
			c-0.8-2.1-1.3-4.4-1.3-6.8c0-2.4,0.4-4.6,1.3-6.7c0.8-2.1,2-3.9,3.5-5.5c1.5-1.6,3.3-2.8,5.4-3.8c2.1-0.9,4.3-1.4,6.8-1.4
			c2.5,0,4.7,0.5,6.8,1.4c2.1,0.9,3.8,2.2,5.3,3.8c1.5,1.6,2.6,3.4,3.4,5.5c0.8,2.1,1.2,4.3,1.2,6.6c0,0.3,0,0.7,0,1
			c0,0.3,0,0.6-0.1,0.7h-29c0.1,1.8,0.6,3.5,1.3,5c0.7,1.5,1.6,2.9,2.8,4c1.1,1.1,2.4,2,3.9,2.6c1.5,0.6,3,0.9,4.6,0.9
			c1.1,0,2.2-0.2,3.2-0.5c1.1-0.3,2.1-0.7,3-1.2c0.9-0.5,1.7-1.2,2.5-1.9c0.7-0.8,1.3-1.6,1.7-2.5l3.8,1C70.6,61.9,69.9,63,69,64
			c-1,1-2.1,1.9-3.3,2.7c-1.3,0.8-2.6,1.3-4.2,1.8C60,68.8,58.4,69.1,56.7,69.1z M69.2,49.7c-0.1-1.8-0.6-3.5-1.3-5
			c-0.7-1.5-1.6-2.8-2.7-3.9c-1.1-1.1-2.4-1.9-3.8-2.5c-1.5-0.6-3-0.9-4.6-0.9c-1.6,0-3.2,0.3-4.7,0.9c-1.5,0.6-2.8,1.5-3.9,2.5
			c-1.1,1.1-2,2.4-2.7,3.9c-0.7,1.5-1.1,3.2-1.2,4.9H69.2z"/>
		<path class="st0" d="M80,21h4.4v39.8c0,1.3,0.3,2.2,1,3c0.7,0.7,1.7,1.1,2.9,1.1c0.5,0,1-0.1,1.7-0.2s1.3-0.3,1.8-0.5l0.8,3.6
			c-0.8,0.3-1.8,0.6-3,0.8c-1.2,0.2-2.2,0.3-3.1,0.3c-2,0-3.6-0.6-4.8-1.7c-1.2-1.1-1.8-2.8-1.8-4.8V21z"/>
		<path class="st0" d="M97,27.5V21h4.4v6.5H97z M97,68.4V34.5h4.4v33.9H97z"/>
		<path class="st0" d="M122,69.1c-2.6,0-5.2-0.4-7.7-1.3c-2.5-0.9-4.7-2.1-6.5-3.8l2-3c1.9,1.6,3.8,2.7,5.8,3.5
			c2,0.8,4.1,1.2,6.3,1.2c2.7,0,4.9-0.6,6.5-1.7c1.6-1.1,2.4-2.7,2.4-4.7c0-1-0.2-1.7-0.6-2.4c-0.4-0.6-1.1-1.2-1.9-1.7
			c-0.8-0.5-1.9-0.9-3.2-1.3c-1.3-0.4-2.8-0.7-4.5-1.1c-1.9-0.5-3.6-1-5.1-1.4c-1.4-0.5-2.6-1-3.5-1.6c-0.9-0.6-1.6-1.4-2.1-2.2
			c-0.5-0.9-0.7-2-0.7-3.3c0-1.7,0.3-3.2,1-4.5c0.7-1.3,1.6-2.4,2.7-3.2c1.1-0.8,2.5-1.5,4-1.9c1.5-0.4,3.2-0.7,4.9-0.7
			c2.6,0,5,0.4,7.1,1.3c2.1,0.8,3.8,2,5.1,3.3l-2.1,2.6c-1.3-1.3-2.8-2.3-4.6-2.9c-1.8-0.6-3.7-1-5.6-1c-1.2,0-2.3,0.1-3.2,0.4
			c-1,0.2-1.9,0.6-2.6,1.1c-0.8,0.5-1.4,1.2-1.8,2c-0.4,0.8-0.6,1.7-0.6,2.8c0,0.9,0.2,1.6,0.5,2.2c0.3,0.6,0.8,1.1,1.5,1.5
			c0.7,0.4,1.6,0.8,2.6,1.1c1.1,0.3,2.4,0.7,3.9,1c2.2,0.5,4.1,1,5.7,1.6c1.6,0.5,3,1.1,4.1,1.8c1.1,0.7,1.9,1.5,2.5,2.5
			c0.6,1,0.8,2.2,0.8,3.6c0,3.1-1.2,5.6-3.6,7.4C129.2,68.1,126,69.1,122,69.1z"/>
		<g>
			<path class="st1" d="M175,32.7c3.3,0,5.3-2.2,5.3-4.9c0-2.8-2-5-5.2-5c-3.2,0-5.2,2.1-5.2,5C169.8,30.5,171.8,32.7,175,32.7z"/>
			<path class="st1" d="M170.1,36.6h-9.5l-4.1,14.8c-0.7,2.7-1.3,5.1-1.8,7.7h-0.2c-0.5-2.5-1-5.1-1.8-7.7l-4.3-14.8h-10.7
				l11.6,31.8h9.9l11-29.5v29.5h9.9V36.6h-9H170.1z"/>
		</g>
		<path class="st1" d="M213.3,22.3v36.6c0,3.6,0.1,7.4,0.3,9.5h-8.8l-0.4-4.7h-0.1c-2,3.6-5.9,5.4-10,5.4c-7.5,0-13.6-6.4-13.6-16.3
			c0-10.7,6.7-16.9,14.2-16.9c3.9,0,6.9,1.4,8.4,3.6h0.1V22.3H213.3z M203.4,50.1c0-0.6,0-1.2-0.1-1.8c-0.6-2.7-2.7-4.8-5.7-4.8
			c-4.5,0-6.8,4-6.8,9c0,5.4,2.6,8.7,6.8,8.7c2.8,0,5.1-1.9,5.7-4.7c0.2-0.7,0.2-1.4,0.2-2.2V50.1z"/>
		<path class="st1" d="M223.5,55.7c0.3,4.1,4.4,6.1,9,6.1c3.3,0,6.1-0.4,8.8-1.3l1.3,6.7c-3.3,1.3-7.3,2-11.5,2
			c-10.8,0-17-6.3-17-16.2c0-8.1,5-17,16-17c10.3,0,14.2,8,14.2,15.9c0,1.7-0.2,3.2-0.4,3.9H223.5z M235.1,48.9c0-2.4-1-6.4-5.5-6.4
			c-4.2,0-5.9,3.8-6.1,6.4H235.1z"/>
		<g>
			<path class="st1" d="M144.5,80.1c0.7-0.1,1.7-0.2,3.1-0.2c1.4,0,2.4,0.3,3.1,0.8c0.6,0.5,1.1,1.3,1.1,2.3s-0.3,1.8-0.9,2.4
				c-0.8,0.7-1.9,1.1-3.3,1.1c-0.3,0-0.6,0-0.8-0.1v3.6h-2.3V80.1z M146.8,84.7c0.2,0,0.4,0.1,0.8,0.1c1.2,0,2-0.6,2-1.6
				c0-0.9-0.6-1.5-1.8-1.5c-0.5,0-0.8,0-0.9,0.1V84.7z"/>
			<path class="st1" d="M157,80.1c0.7-0.1,1.8-0.2,3-0.2c1.5,0,2.6,0.2,3.3,0.8c0.6,0.5,0.9,1.2,0.9,2.1c0,1.3-0.9,2.2-1.8,2.5v0
				c0.7,0.3,1.1,1,1.4,1.9c0.3,1.1,0.6,2.5,0.8,2.9h-2.3c-0.2-0.3-0.4-1.1-0.7-2.4c-0.3-1.3-0.7-1.6-1.6-1.6h-0.7v4H157V80.1z
				 M159.3,84.5h0.9c1.1,0,1.8-0.6,1.8-1.5c0-0.9-0.6-1.4-1.7-1.4c-0.5,0-0.9,0-1,0.1V84.5z"/>
			<path class="st1" d="M178.8,84.9c0,3.3-2,5.3-5,5.3c-3,0-4.8-2.3-4.8-5.2c0-3,1.9-5.3,4.9-5.3C177.1,79.8,178.8,82.1,178.8,84.9z
				 M171.5,85.1c0,2,0.9,3.4,2.5,3.4c1.5,0,2.4-1.5,2.4-3.4c0-1.8-0.9-3.4-2.4-3.4C172.4,81.6,171.5,83.1,171.5,85.1z"/>
			<path class="st1" d="M184.1,80.1c0.8-0.1,1.9-0.2,3.1-0.2c1.9,0,3.2,0.4,4.1,1.1c1,0.8,1.7,2,1.7,3.8c0,1.9-0.7,3.3-1.7,4.1
				c-1.1,0.9-2.7,1.3-4.7,1.3c-1.2,0-2-0.1-2.6-0.1V80.1z M186.4,88.4c0.2,0,0.5,0,0.8,0c2.1,0,3.4-1.1,3.4-3.5
				c0-2.1-1.2-3.2-3.2-3.2c-0.5,0-0.8,0-1,0.1V88.4z"/>
			<path class="st1" d="M200.6,80v5.8c0,1.7,0.7,2.6,1.8,2.6c1.2,0,1.9-0.8,1.9-2.6V80h2.3v5.7c0,3.1-1.6,4.6-4.2,4.6
				c-2.6,0-4-1.4-4-4.6V80H200.6z"/>
			<path class="st1" d="M219.7,89.8c-0.4,0.2-1.4,0.4-2.6,0.4c-3.5,0-5.3-2.2-5.3-5.1c0-3.4,2.5-5.4,5.5-5.4c1.2,0,2.1,0.2,2.5,0.4
				l-0.5,1.8c-0.5-0.2-1.1-0.4-1.9-0.4c-1.8,0-3.2,1.1-3.2,3.3c0,2,1.2,3.3,3.2,3.3c0.7,0,1.5-0.1,1.9-0.3L219.7,89.8z"/>
			<path class="st1" d="M227.1,81.9h-2.7V80h7.8v1.9h-2.8v8.2h-2.3V81.9z"/>
			<path class="st1" d="M239.4,80v10.1h-2.3V80H239.4z"/>
			<path class="st1" d="M254.4,84.9c0,3.3-2,5.3-5,5.3c-3,0-4.8-2.3-4.8-5.2c0-3,1.9-5.3,4.9-5.3C252.7,79.8,254.4,82.1,254.4,84.9z
				 M247.1,85.1c0,2,0.9,3.4,2.5,3.4c1.5,0,2.4-1.5,2.4-3.4c0-1.8-0.9-3.4-2.4-3.4C248,81.6,247.1,83.1,247.1,85.1z"/>
			<path class="st1" d="M259.7,90.1V80h2.7l2.1,3.7c0.6,1.1,1.2,2.3,1.7,3.5l0,0c-0.1-1.3-0.2-2.7-0.2-4.2V80h2.1v10.1h-2.4
				l-2.2-3.9c-0.6-1.1-1.3-2.4-1.8-3.6l-0.1,0c0.1,1.3,0.1,2.8,0.1,4.4v3H259.7z"/>
			<path class="st1" d="M273.8,87.7c0.6,0.3,1.6,0.6,2.5,0.6c1,0,1.6-0.4,1.6-1.1c0-0.6-0.5-1-1.7-1.4c-1.7-0.6-2.8-1.5-2.8-3
				c0-1.7,1.4-3,3.8-3c1.2,0,2,0.2,2.6,0.5l-0.5,1.8c-0.4-0.2-1.1-0.5-2.1-0.5c-1,0-1.5,0.5-1.5,1c0,0.6,0.6,0.9,1.9,1.4
				c1.8,0.7,2.6,1.6,2.6,3c0,1.7-1.3,3.1-4.1,3.1c-1.1,0-2.3-0.3-2.9-0.6L273.8,87.7z"/>
		</g>
		<path class="st1" d="M264.6,35c8.8,0,15.9,7.2,15.9,15.9c0,8.8-7.2,15.9-15.9,15.9s-15.9-7.2-15.9-15.9
			C248.7,42.2,255.8,35,264.6,35 M264.6,33c-9.9,0-17.9,8-17.9,17.9s8,17.9,17.9,17.9c9.9,0,17.9-8,17.9-17.9S274.5,33,264.6,33
			L264.6,33z"/>
		<circle class="st2" cx="264.4" cy="51" r="3.1"/>
		<g>
			<path class="st1" d="M262.1,46.8L262.1,46.8l5.2-9c-0.9-0.2-1.8-0.3-2.7-0.3c-3.6,0-6.8,1.4-9.2,3.7l5,8.7L262.1,46.8z"/>
			<path class="st1" d="M277.6,47.9h-10l1.6,2.7l0,0l5.4,9.3c2.1-2.4,3.4-5.5,3.4-8.9C278,49.9,277.8,48.9,277.6,47.9z"/>
			<path class="st1" d="M266.4,46.8h0.5h10.3c-1.4-4.1-4.7-7.4-8.9-8.7l-5,8.7H266.4z"/>
			<path class="st1" d="M267.1,54.9L267.1,54.9l-5.3,9.2c0.9,0.2,1.8,0.3,2.7,0.3c3.6,0,6.8-1.4,9.2-3.7l-5-8.7L267.1,54.9z"/>
			<path class="st1" d="M263.1,55.2h-1.1h-10.3c1.4,4.1,4.7,7.4,8.9,8.7l5-8.7H263.1z"/>
			<path class="st1" d="M259.6,51L259.6,51l-5.2-8.9c-2.1,2.4-3.4,5.5-3.4,8.9c0,1.1,0.1,2.1,0.4,3.1h10L259.6,51z"/>
			<line class="st1" x1="267" y1="55.2" x2="267.1" y2="54.9"/>
		</g>
	</g>
</g>
</svg>
